<svg width="120" height="28" viewBox="0 0 120 28" fill="none" xmlns="http://www.w3.org/2000/svg">
<path d="M11.9336 22.5332L17.415 19.2666L17.4482 24.5332L12.0664 27.7002L0 20.7998V15.7334L11.9336 22.5332ZM23.9668 6.9668V20.7002L19.3535 23.4336V9.7334L13.7715 6.4668L18.4512 3.7666L23.9668 6.9668ZM16.5459 2.66699L4.41211 9.83301V16L0 13.4336V6.93359L11.9336 0L16.5459 2.66699Z" fill="#64BC4F"/>
<path d="M11.8994 18.0669L14.2393 16.6997V18.9663L11.9336 20.3335L6.35059 17.1001V14.8335L11.8994 18.0669ZM17.4482 10.8003V17.0669L15.4092 18.2329L15.4434 11.9995L13.1035 10.6333L15.1416 9.46631L17.4482 10.8003ZM13.9385 8.76709L8.38965 12.0005V14.6333L6.35059 13.4663V10.8003L11.9336 7.53369L13.9385 8.76709Z" fill="#666666"/>
<path d="M101.95 8.30029C103.554 8.30029 104.858 8.86636 105.828 9.96631C106.83 11.0663 107.331 12.4004 107.331 14.0337C107.331 15.6335 106.83 17.0002 105.828 18.1001C104.825 19.2001 103.487 19.7671 101.816 19.7671C100.145 19.767 98.8413 19.1 97.9388 17.8003V23.9995H96.267V8.49951H97.9388V10.2671H97.972C98.8745 8.96716 100.178 8.30036 101.95 8.30029ZM39.476 8.30029C41.1472 8.30029 42.4847 8.86642 43.5209 9.96631C44.4902 11.033 44.9916 12.4004 44.9916 14.0337C44.9915 15.6669 44.4902 17.0335 43.5209 18.1001C42.4847 19.2001 41.1472 19.7671 39.476 19.7671C37.8049 19.767 36.4681 19.1999 35.432 18.1001C34.4627 17.0335 33.9614 15.6669 33.9613 14.0337C33.9613 12.4004 34.4626 11.033 35.432 9.96631C36.4681 8.86659 37.805 8.30037 39.476 8.30029ZM87.8773 8.30029C89.5486 8.30029 90.8527 8.96709 91.7552 10.2671V8.46631H93.4261V19.5669H91.7552V17.8003C90.8527 19.1003 89.5483 19.7671 87.7767 19.7671C86.1726 19.767 84.8692 19.1999 83.8666 18.1001C82.8973 17.0002 82.396 15.6668 82.3959 14.0337C82.3959 12.4337 82.8972 11.0663 83.8666 9.96631C84.8693 8.86654 86.2062 8.30032 87.8773 8.30029ZM63.6439 8.26709C65.0139 8.26717 66.0832 8.5999 66.8519 9.23291C67.5204 9.76622 67.8883 10.5 67.9886 11.3999H66.3177V11.4663C66.1839 10.2999 65.2478 9.73294 63.5433 9.73291C61.8386 9.73291 60.9691 10.2668 60.9691 11.3335C60.9692 11.7668 61.1366 12.1002 61.5043 12.3335C61.8719 12.5668 62.3397 12.7666 62.8744 12.8999C63.4092 13.0332 64.0115 13.2003 64.6801 13.3003C65.315 13.4336 65.9166 13.6002 66.4847 13.8335C67.0195 14.0668 67.4872 14.3671 67.8549 14.7671C68.2225 15.1671 68.39 15.7 68.39 16.3999C68.39 17.4664 67.9891 18.3 67.1537 18.8667C66.3515 19.4334 65.248 19.7329 63.8441 19.7329C62.3735 19.7329 61.1702 19.3665 60.3011 18.6333C59.499 17.9667 59.0643 17.1335 58.9974 16.0669H60.7357C60.8361 17.1001 61.4044 17.7667 62.474 18.1333C62.8749 18.2665 63.2423 18.3003 63.6097 18.3003C63.9774 18.3003 64.3458 18.2662 64.6801 18.2329C65.014 18.1995 65.3148 18.1004 65.6488 18.0005C66.3507 17.7338 66.719 17.2335 66.7191 16.5669C66.7191 16.1004 66.5514 15.7671 66.184 15.5005C65.8164 15.2672 65.3485 15.0665 64.8138 14.8999C64.279 14.7332 63.6767 14.5996 63.0082 14.4663C62.3732 14.333 61.7717 14.1664 61.2035 13.9331C60.6687 13.6998 60.2001 13.4004 59.8324 13.0337C59.4647 12.6337 59.2982 12.1331 59.2982 11.4331C59.2983 10.4333 59.6656 9.63339 60.4008 9.1001C61.1361 8.53343 62.2066 8.26709 63.6439 8.26709ZM114.351 8.26709C116.022 8.26709 117.36 8.83311 118.396 9.93311C119.365 10.9998 119.867 12.3672 119.867 14.0005V14.6665H110.54C110.674 15.6996 111.075 16.5331 111.777 17.1997C112.479 17.8997 113.382 18.2329 114.485 18.2329C115.989 18.2329 117.059 17.6 117.694 16.3667H119.532C119.131 17.3666 118.529 18.2003 117.694 18.8003C116.858 19.4335 115.788 19.7329 114.452 19.7329C112.78 19.7329 111.41 19.1668 110.373 18.0669C109.337 17.0003 108.835 15.6336 108.835 14.0005C108.835 12.3672 109.337 10.9998 110.306 9.93311C111.342 8.83312 112.68 8.2671 114.351 8.26709ZM52.3119 8.30029C53.0472 8.30029 53.6824 8.40011 54.2172 8.6001C54.752 8.8001 55.2203 9.13369 55.6215 9.53369C56.5237 10.4337 56.9916 11.6336 56.9916 13.1001V19.5669H55.3207V13.1665C55.3207 12.1332 55.0198 11.3329 54.4515 10.7329C53.8833 10.1329 53.1138 9.8335 52.2113 9.8335C51.2755 9.83358 50.4733 10.1338 49.8383 10.7671C49.17 11.4003 48.8696 12.2 48.8695 13.1997V19.6001H47.1976V8.49951H48.8695V10.2329C49.2706 9.69979 49.7721 9.26658 50.3402 8.8667C50.9084 8.50015 51.5766 8.30031 52.3119 8.30029ZM72.1674 10.1997C72.5684 9.66653 73.0699 9.23341 73.6381 8.8335C74.2062 8.46691 74.8745 8.26714 75.6097 8.26709C76.345 8.26709 76.9802 8.36694 77.515 8.56689C78.0498 8.76689 78.5182 9.10049 78.9193 9.50049C79.8216 10.4005 80.2894 11.6004 80.2894 13.0669V19.5337H78.6185V13.1665C78.6185 12.1333 78.3176 11.3329 77.7494 10.7329C77.1812 10.1331 76.4124 9.83359 75.5101 9.8335C74.5742 9.8335 73.7712 10.1338 73.1361 10.7671C72.4679 11.4003 72.1674 12.2 72.1674 13.1997V19.6001H70.4955V4.03369H72.1674V10.1997ZM39.476 9.8335C38.2728 9.83358 37.337 10.2336 36.6351 11.0669C35.9667 11.8669 35.6322 12.8338 35.6322 14.0337C35.6323 15.2334 35.9668 16.233 36.6351 16.9995C37.3036 17.8328 38.2728 18.2328 39.476 18.2329C40.6793 18.2329 41.6158 17.8328 42.3177 16.9995C42.986 16.1997 43.3206 15.2333 43.3207 14.0337C43.3207 12.8338 42.9861 11.8335 42.3177 11.0669C41.6158 10.2336 40.6793 9.8335 39.476 9.8335ZM88.0111 9.8335C86.8412 9.8335 85.8715 10.2336 85.1361 11.0669C84.4344 11.8668 84.1 12.8339 84.1 14.0337C84.1 15.2333 84.4345 16.233 85.1361 16.9995C85.8381 17.8328 86.8078 18.2329 88.0111 18.2329C89.2145 18.2329 90.15 17.8328 90.8519 16.9995C91.5203 16.1996 91.8548 15.2335 91.8549 14.0337C91.8549 12.8337 91.5205 11.8336 90.8519 11.0669C90.15 10.2336 89.2144 9.8335 88.0111 9.8335ZM101.749 9.80029C100.546 9.80029 99.6095 10.2004 98.9076 11.0337C98.2394 11.8335 97.9057 12.8 97.9056 13.9995C97.9056 15.1993 98.2393 16.1997 98.9076 16.9663C99.6095 17.7996 100.546 18.1997 101.749 18.1997C102.919 18.1997 103.889 17.7996 104.624 16.9663C105.326 16.1664 105.661 15.1993 105.661 13.9995C105.66 12.7999 105.326 11.8002 104.624 11.0337C103.889 10.2337 102.919 9.80031 101.749 9.80029ZM114.351 9.80029C113.315 9.8003 112.479 10.1338 111.777 10.7671C111.108 11.367 110.741 12.1669 110.574 13.1333H118.128C117.995 12.1668 117.593 11.367 116.925 10.7671C116.223 10.1338 115.387 9.80029 114.351 9.80029Z" fill="#666666"/>
</svg>
